<?xml version="1.0" ?><!DOCTYPE svg  PUBLIC '-//W3C//DTD SVG 1.1//EN'  'http://www.w3.org/Graphics/SVG/1.1/DTD/svg11.dtd'><svg enable_background="new 0 0 960 529" height="529px" style="stroke-linejoin: round; stroke:#000; fill:#f6f3f0;" version="1.1" viewBox="0 0 960 529" width="960px" xmlns="http://www.w3.org/2000/svg" xmlns:xlink="http://www.w3.org/1999/xlink"><defs><style type="text/css"><![CDATA[path { fill-rule: evenodd; }
#context path { fill: #eee; stroke: #bbb; } ]]></style></defs><metadata><views><view h="529.278066012" padding="0.02" w="960"><proj flip="auto" id="mercator" lon0="0.0"/><bbox h="3595.87" w="6534.51" x="-3267.26" y="-2153.25"/><llbbox lat0="-60.0" lat1="75.0" lon0="-180.0" lon1="180.0"/></view></views></metadata><g fill="#a9c7d2" id="continents" stroke="none"><path d="M855.89,440.02L858.79,435.90L859.52,430.80L854.46,431.53L852.29,436.10L855.44,439.98L855.79,440.04Z M913.39,450.93L917.16,446.87L918.76,441.88L922.47,438.30L925.86,433.88L922.15,430.21L918.71,434.30L915.69,438.44L911.12,441.50L907.88,445.32L909.70,449.99L912.77,450.97Z M854.82,424.66L858.45,420.81L863.40,419.56L864.29,414.52L866.26,409.56L868.53,404.99L871.42,400.56L872.45,394.80L872.55,389.76L871.99,384.59L869.15,380.43L865.89,375.98L862.17,372.04L859.25,367.88L854.63,365.22L853.40,360.09L851.80,355.12L847.62,351.84L846.36,346.88L842.36,350.42L842.01,356.18L840.42,361.01L835.28,359.53L830.85,357.08L826.59,354.19L828.81,349.66L824.81,346.64L820.01,345.09L815.38,347.17L812.16,351.19L808.31,354.41L803.70,352.14L799.49,355.00L796.34,359.01L793.11,362.89L789.66,366.92L783.91,368.71L779.01,369.76L774.73,372.46L771.23,376.32L770.91,381.79L771.01,387.11L773.13,392.01L774.30,396.93L776.20,401.92L775.63,406.92L778.20,411.43L783.32,410.65L788.18,408.25L794.22,408.03L798.69,405.11L804.46,403.20L810.01,401.36L815.13,400.95L820.92,402.81L824.78,406.07L826.73,410.71L830.71,407.50L834.48,411.54L837.60,415.79L839.29,420.69L844.30,422.23L849.37,422.16L854.30,424.18L854.67,424.77Z M928.84,432.95L932.19,428.59L935.46,424.76L936.76,419.92L931.17,419.99L927.30,416.68L925.58,411.92L926.29,416.92L926.98,422.42L927.89,427.45L927.63,432.45L928.66,433.06Z M796.98,342.36L801.79,339.29L796.60,340.46L796.70,342.37Z M779.84,339.05L784.82,338.12L779.85,337.23L779.59,339.13Z M789.89,338.68L794.67,337.20L789.38,337.13L789.76,338.70Z M864.98,343.15L861.96,339.05L857.60,335.53L854.68,330.14L850.93,326.47L846.31,324.33L841.33,322.47L836.38,321.11L831.07,320.35L827.11,323.90L823.28,320.46L819.42,316.66L821.29,321.41L823.62,325.85L828.60,327.66L833.33,329.75L835.86,334.22L839.55,337.89L844.43,339.44L848.26,336.16L853.74,336.48L856.97,340.37L862.23,342.22L864.71,343.17Z M773.29,338.16L768.67,335.13L764.08,332.32L759.01,333.23L754.25,331.01L749.58,332.86L754.57,334.92L759.68,335.52L764.94,336.96L770.97,337.52L773.25,338.27Z M863.51,331.88L868.23,329.95L863.07,329.90L863.25,331.90Z M786.51,330.32L788.22,325.34L793.43,327.07L791.84,321.71L795.75,318.31L790.38,318.60L794.56,314.50L799.62,313.19L794.51,313.57L789.58,312.38L786.53,316.98L784.90,321.84L786.12,327.07L786.39,330.34Z M808.44,317.83L809.38,312.91L808.30,317.97L808.67,318.03Z M341.57,310.24L346.01,307.93L347.81,305.34L343.67,301.53L341.40,302.01L341.64,307.15L341.47,310.31Z M747.91,330.85L750.85,326.40L748.79,321.78L745.45,318.01L742.49,313.82L738.60,309.96L733.75,306.57L730.06,302.82L725.02,301.44L727.03,306.09L730.28,309.90L733.52,313.98L736.71,317.86L739.01,322.56L742.42,326.38L746.33,329.54L747.78,330.89Z M774.97,325.75L778.28,321.91L780.90,317.60L783.93,313.59L781.49,308.91L783.51,304.31L781.01,299.85L776.21,301.56L771.79,304.02L768.52,307.88L764.51,310.87L759.38,311.63L759.27,316.74L761.84,321.46L766.22,324.21L771.23,324.59L773.53,326.42Z M801.07,301.22L803.97,296.94L802.96,291.89L798.26,293.75L793.22,295.08L797.89,296.92L800.64,301.30L800.79,301.39Z M686.59,300.41L689.05,296.01L686.56,291.66L684.21,296.27L686.01,300.49Z M780.23,294.06L783.97,290.62L780.09,293.80L779.99,294.25Z M795.12,292.45L795.44,287.43L794.77,292.46L794.95,292.47Z M801.82,287.22L798.10,283.31L801.51,287.07L801.79,287.28Z M717.30,286.02L718.18,281.03L717.16,286.01L717.24,286.08Z M797.70,282.73L794.42,278.89L791.23,274.98L792.68,270.04L787.93,272.22L787.32,277.30L792.41,280.11L797.00,282.36L797.50,283.32Z M760.47,268.29L764.11,264.42L758.71,264.89L760.29,268.31Z M745.01,312.33L744.70,307.09L743.85,301.88L740.06,298.42L736.64,294.51L733.80,290.19L735.51,284.97L740.34,283.00L743.84,286.86L748.21,289.49L753.29,289.71L757.81,287.01L760.04,282.30L758.80,276.90L755.69,272.95L752.56,269.04L751.24,263.65L754.89,259.97L760.07,259.43L765.08,259.28L769.88,257.76L770.54,257.32L775.59,256.01L780.01,253.43L783.80,250.05L786.81,245.84L789.24,241.36L792.15,236.69L787.61,234.48L789.04,229.45L788.40,224.23L784.97,220.48L787.80,216.15L792.36,213.78L787.84,211.46L782.03,209.86L785.13,205.84L789.08,201.90L791.28,206.46L796.04,204.65L800.96,206.11L800.84,211.28L803.87,215.35L803.54,220.56L808.58,220.40L811.15,215.85L809.77,210.83L806.81,206.78L809.74,202.67L812.08,198.08L815.89,194.67L821.22,194.44L825.83,191.77L829.24,187.14L832.59,183.11L835.74,177.69L838.73,173.33L839.48,168.23L840.05,162.57L841.19,157.58L840.05,152.65L834.96,149.50L830.33,151.60L826.62,147.86L830.09,143.37L833.54,139.67L836.87,135.78L840.05,131.54L843.48,127.67L848.20,125.62L853.21,126.02L858.45,125.73L864.41,124.40L869.27,126.22L874.76,127.13L875.60,122.14L879.39,117.45L882.75,113.44L887.68,112.53L889.06,117.36L895.08,114.55L897.82,110.22L903.29,109.35L899.77,113.64L898.06,118.48L893.97,121.85L890.38,125.70L887.46,130.04L882.95,133.54L879.42,138.36L878.10,144.93L879.00,151.21L879.64,156.27L880.52,161.57L885.21,159.03L888.42,154.19L890.80,149.01L893.91,144.89L895.85,140.14L897.05,135.08L894.96,130.40L897.86,126.16L901.06,122.32L905.74,120.13L911.14,119.57L915.47,122.70L918.88,118.87L922.26,115.11L926.87,112.79L931.27,110.17L938.01,110.12L938.18,104.92L936.77,100.04L933.11,96.53L928.12,96.37L933.16,96.13L938.49,96.16L940.66,68.70L936.68,65.31L931.48,62.99L926.13,62.15L920.12,61.27L915.59,63.62L917.62,68.25L912.38,67.41L909.00,63.20L901.03,64.17L895.56,63.87L893.49,69.25L893.28,68.64L893.23,69.28L893.12,69.29L893.21,68.41L893.28,68.64L893.62,64.29L893.21,68.41L891.81,64.19L889.44,59.60L886.16,54.11L880.99,52.86L875.18,53.80L868.40,53.74L865.51,49.63L863.29,44.78L857.32,42.68L853.84,47.11L849.74,44.08L854.30,41.83L849.31,40.11L843.57,39.45L837.27,41.37L837.59,46.48L833.30,49.41L828.29,48.65L823.20,50.59L819.65,46.59L817.80,51.28L813.42,54.01L810.72,49.55L808.50,44.80L810.44,39.82L809.09,34.71L803.88,34.06L799.38,30.66L796.07,34.71L791.58,37.29L786.47,37.20L783.16,32.90L778.14,30.98L771.91,31.82L770.26,37.61L770.13,31.83L765.10,29.60L761.15,32.83L756.40,34.94L751.69,37.00L754.27,31.77L759.15,27.71L762.47,23.62L767.13,19.87L770.77,15.50L768.50,10.95L769.89,5.52L766.09,1.68L759.90,0.06L755.44,2.71L754.99,0.00L738.85,0.00L738.74,0.56L733.03,2.71L735.54,8.94L730.86,6.78L725.52,8.98L720.83,6.89L716.99,10.52L710.81,12.47L706.50,15.53L702.76,20.60L700.10,25.04L703.19,29.13L699.94,32.97L694.12,30.89L688.50,31.31L685.91,35.66L686.78,41.17L690.58,44.66L693.88,48.86L693.90,55.43L692.70,60.45L692.55,55.05L692.36,50.01L686.93,45.78L683.26,42.35L678.27,43.93L675.06,48.14L679.39,51.03L673.82,51.50L672.64,45.87L673.49,40.64L670.64,45.56L667.05,50.06L670.18,56.30L668.30,62.74L669.33,67.76L674.51,66.89L679.07,71.20L678.39,76.18L676.38,70.16L670.87,70.35L671.38,75.66L669.09,81.69L665.33,85.10L660.02,86.50L663.42,82.65L666.69,77.62L668.02,72.59L665.62,68.00L665.80,62.81L666.06,57.81L665.75,52.41L665.23,47.00L666.28,41.48L660.82,37.98L656.15,42.26L654.72,48.14L650.88,52.50L652.10,57.48L651.04,62.45L654.33,66.88L656.15,71.64L651.48,69.48L646.43,66.64L642.16,63.68L636.15,62.38L635.26,67.79L633.29,72.65L629.34,69.18L624.02,71.24L620.04,74.30L617.99,69.50L614.30,72.93L609.02,74.06L604.80,76.74L602.10,81.96L597.09,82.32L596.52,77.21L597.45,72.25L591.26,70.85L593.18,75.59L592.05,80.58L593.42,85.61L588.29,85.40L584.35,88.75L582.11,93.29L577.55,95.72L577.17,101.08L571.63,98.82L568.73,93.82L568.04,87.86L564.27,84.18L570.51,85.95L575.45,87.25L580.55,87.84L585.41,83.39L584.84,77.51L579.38,73.33L573.72,68.55L567.92,66.40L562.86,65.12L558.30,62.84L553.72,60.58L559.19,59.20L555.24,55.68L550.98,52.96L548.25,58.08L544.42,54.60L540.55,58.25L535.12,59.33L532.62,63.99L527.64,65.04L524.76,69.44L521.47,73.38L517.87,76.86L515.89,81.77L513.57,87.21L511.24,91.87L508.91,96.32L505.62,100.30L501.49,103.48L497.76,106.92L494.04,110.76L492.85,116.10L498.36,116.55L493.29,117.15L494.56,122.00L493.24,126.86L496.35,131.27L501.81,131.11L505.81,127.53L509.30,132.00L511.79,137.77L513.12,142.86L518.52,141.18L522.12,137.68L522.74,131.79L526.00,127.66L521.32,125.43L526.49,125.52L526.10,119.99L523.86,115.40L524.61,110.23L527.54,105.81L531.71,102.75L534.93,98.56L535.04,93.35L538.21,89.48L543.15,90.73L544.72,95.69L541.07,99.27L537.65,103.22L534.25,107.70L534.95,113.09L534.71,118.22L537.49,122.48L542.56,122.52L547.51,120.44L552.97,119.13L556.72,122.49L551.81,123.74L546.01,124.49L540.87,126.30L541.72,131.28L542.25,133.19L536.90,134.17L533.82,139.03L533.86,141.65L534.23,146.78L530.17,148.89L524.18,147.69L519.13,150.29L516.37,151.11L511.68,149.38L506.51,148.98L504.55,144.28L507.88,140.32L506.97,135.21L502.06,136.81L500.99,142.05L502.19,146.92L504.65,152.63L499.53,152.21L494.16,154.05L491.20,158.58L487.58,162.43L483.97,166.37L480.35,169.91L475.25,168.79L471.12,172.21L473.01,176.86L476.44,181.56L478.36,186.17L476.20,191.64L470.98,191.82L465.50,191.57L460.30,190.93L456.88,194.80L457.80,199.98L456.59,205.39L457.28,210.59L462.15,213.05L465.60,216.79L470.20,214.47L475.40,212.94L479.02,209.04L480.11,203.83L484.01,199.84L488.31,197.28L489.69,192.00L494.87,193.27L499.04,190.98L503.77,188.95L506.93,192.90L510.22,196.81L514.69,199.72L519.14,203.64L520.64,208.46L522.66,203.41L520.69,198.76L516.30,195.34L513.03,190.37L511.29,185.62L515.11,184.36L519.08,188.72L523.26,192.24L527.39,195.59L529.79,200.15L531.19,204.84L534.03,209.21L539.10,209.82L534.12,210.72L537.27,214.64L540.15,210.35L539.53,208.02L542.71,210.56L542.80,210.52L539.52,208.00L539.53,208.02L538.83,207.47L539.52,208.00L538.81,205.32L542.02,201.23L547.11,201.80L552.10,200.23L551.70,197.20L552.48,192.12L554.03,187.19L556.02,185.56L558.76,181.10L563.94,182.36L565.81,187.65L570.78,186.14L571.69,180.54L576.81,178.77L576.41,184.12L578.88,188.95L582.31,192.14L586.41,195.71L583.05,200.64L577.02,200.50L572.27,198.18L565.43,197.03L560.51,199.42L555.04,199.73L550.96,202.77L546.83,205.64L548.79,210.28L551.87,214.48L556.99,216.08L561.95,215.17L566.90,215.93L571.89,214.17L571.86,217.13L571.23,222.35L569.37,227.36L568.24,230.47L569.24,236.48L569.33,236.73L570.66,241.82L573.46,246.49L575.80,251.15L579.29,255.09L580.52,260.82L584.31,264.15L586.61,268.88L589.51,273.05L590.10,278.08L591.30,282.97L596.53,281.57L601.91,279.92L606.81,277.64L612.07,276.01L615.86,272.52L620.92,271.48L624.99,267.31L628.04,263.16L631.78,259.56L630.95,254.58L626.19,252.49L624.08,247.78L619.80,250.69L614.74,252.01L611.87,247.70L610.02,250.22L608.25,245.49L604.91,241.73L602.98,237.09L604.24,235.30L609.35,236.53L611.85,241.31L616.51,243.92L621.51,244.55L626.39,246.34L631.11,248.45L636.39,249.11L641.67,248.91L647.39,248.57L652.21,251.41L656.12,255.08L659.24,260.26L664.31,260.32L666.20,264.98L667.22,269.91L668.57,275.02L670.94,279.95L672.53,284.74L675.02,289.50L676.98,294.15L682.13,291.92L684.35,286.90L685.62,281.23L685.00,276.05L689.25,273.37L692.93,269.95L696.74,266.29L700.85,263.34L704.39,258.96L709.38,258.51L711.75,254.06L715.23,258.32L717.48,262.91L721.20,266.90L721.59,271.93L726.52,273.07L730.29,276.42L732.05,281.41L732.67,286.55L731.76,291.86L734.13,296.33L736.88,300.93L737.93,305.84L741.42,309.98L744.83,312.34Z M815.01,231.89L817.76,226.66L813.13,224.35L813.20,229.37L814.46,232.18Z M820.05,226.93L824.34,223.95L819.19,224.25L819.88,226.94Z M827.84,224.47L830.12,219.86L835.28,219.71L840.53,217.74L840.95,212.18L842.54,207.27L842.24,202.09L837.63,204.14L836.96,209.16L833.73,213.13L828.98,215.72L824.11,218.04L818.88,219.52L815.05,223.19L820.43,222.10L825.61,221.16L827.28,224.70Z M564.52,221.26L567.03,219.81L563.72,219.48L564.48,221.35Z M518.69,214.53L520.01,209.59L515.01,210.46L517.82,214.61L518.68,214.68Z M502.73,207.48L504.96,202.53L501.53,206.23L502.52,207.49Z M532.96,197.59L532.07,194.22L535.18,196.23L533.04,197.52Z M503.68,198.94L504.21,193.81L502.63,198.60L503.51,199.20Z M838.99,198.95L843.03,195.09L848.45,194.03L853.22,192.26L848.79,189.73L844.48,186.05L842.00,190.98L838.33,194.72L838.68,199.07Z M856.46,188.19L860.79,185.33L856.14,188.07L855.95,188.65Z M612.47,214.92L607.91,212.26L605.02,207.80L607.12,203.04L604.95,198.36L601.91,193.96L600.35,188.86L601.51,184.00L606.03,181.77L610.32,178.98L615.43,179.30L615.06,184.42L610.55,186.78L611.22,191.74L614.66,195.61L618.66,199.04L614.96,202.54L617.49,206.85L617.94,212.36L613.57,214.89Z M843.80,182.85L845.99,178.29L845.90,171.80L848.06,166.41L847.04,161.39L846.80,155.36L845.91,150.28L843.00,154.61L842.56,159.68L843.58,165.01L843.58,170.26L843.88,175.29L843.07,180.28L843.61,183.15Z M455.60,161.38L460.38,159.49L464.31,156.02L463.76,150.95L464.55,145.84L459.51,145.62L456.71,149.91L455.78,155.42L453.44,159.95L455.08,161.58Z M522.30,140.64L523.81,135.83L521.98,140.54L522.17,140.87Z M466.90,167.39L472.32,164.67L477.44,164.26L482.46,163.82L483.99,159.04L480.12,155.60L479.60,150.55L476.36,146.37L473.35,141.85L474.65,136.85L470.10,134.49L472.18,129.70L467.16,129.81L465.37,134.49L465.53,139.52L465.24,144.72L469.42,147.47L472.24,151.88L468.42,155.38L466.78,160.20L471.57,161.92L467.56,165.21L466.63,167.45Z M37.23,99.04L39.24,94.06L43.22,91.03L42.56,85.30L38.22,82.08L35.12,86.35L32.29,81.64L27.25,74.75L22.68,71.79L19.34,75.53L19.34,82.09L19.34,88.38L19.34,94.44L19.87,89.29L25.22,91.85L30.01,94.20L34.17,97.38L36.85,99.15Z M433.16,103.94L437.85,101.28L442.15,98.56L445.27,94.43L442.23,90.20L439.43,85.92L435.11,88.81L430.24,90.00L425.99,93.02L424.66,88.11L419.61,87.98L422.90,91.91L418.93,95.30L423.43,97.65L426.57,101.93L432.26,104.22Z M517.44,74.20L521.81,71.63L521.28,66.61L519.44,71.30L516.72,74.34Z M605.17,70.40L605.98,64.88L603.97,69.97L604.55,70.47Z M527.12,64.58L529.26,59.93L526.28,64.04L526.77,64.71Z M21.49,54.07L23.55,49.38L19.34,52.15L20.83,54.24Z M937.75,54.96L940.66,49.31L937.15,53.23L937.57,54.99Z M624.60,56.97L623.43,50.86L621.52,46.07L621.79,40.92L624.17,36.02L619.04,34.38L615.42,37.89L614.67,43.02L611.64,47.37L616.57,49.28L617.21,54.27L622.52,56.00L624.43,57.00Z M847.13,34.98L845.05,29.82L840.08,31.41L844.29,34.79L846.47,35.08Z M862.86,20.66L861.54,15.81L856.36,14.78L858.70,19.83L861.46,20.66Z M836.29,21.75L841.65,19.18L843.92,14.49L848.58,17.98L851.15,13.50L847.73,9.64L842.75,7.05L840.57,11.84L837.09,8.06L832.05,8.67L831.36,14.94L832.96,19.70L835.99,21.79Z M624.94,34.33L626.68,29.50L630.14,25.30L632.91,20.92L635.95,16.80L641.35,12.62L646.87,9.89L651.79,7.05L655.46,3.37L655.34,0.00L649.08,0.00L646.22,2.99L641.16,5.68L636.21,6.40L631.88,9.18L627.88,13.33L624.78,17.46L622.25,22.06L620.55,26.80L618.72,32.20L623.41,33.96L624.42,34.40Z M523.34,1.65L523.53,0.00L521.17,0.00L521.56,0.59L522.74,1.94Z "/><path d="M596.47,383.45L600.98,380.63L602.48,375.55L604.04,370.46L605.56,365.61L606.55,360.54L609.20,355.60L607.88,350.01L602.95,350.87L600.63,355.38L595.94,357.26L592.55,360.95L593.60,366.10L592.24,370.94L591.07,375.94L592.38,380.84L595.69,383.47Z M532.30,409.94L537.36,408.53L542.95,408.90L548.11,407.46L552.21,404.59L556.10,400.67L559.02,396.50L562.63,392.24L564.16,387.12L565.81,382.39L570.69,379.52L570.96,374.52L568.97,369.53L571.76,365.26L576.00,361.43L581.41,358.78L584.16,354.39L583.83,349.26L583.76,344.24L583.56,342.67L580.78,338.15L580.40,332.89L580.38,327.76L582.83,322.96L586.80,319.40L591.24,314.15L597.28,309.83L601.59,305.58L605.53,299.91L607.58,295.30L610.09,290.77L611.08,285.70L605.56,286.71L600.22,287.61L595.02,288.88L590.68,286.11L590.35,282.95L586.61,279.59L582.59,276.50L579.90,271.35L576.56,267.02L575.27,261.96L573.19,256.91L571.17,252.25L568.46,247.67L566.24,242.95L563.58,238.35L567.58,241.73L569.19,236.87L569.33,236.73L569.24,236.48L567.52,231.26L562.45,231.34L557.45,231.28L551.58,231.93L546.27,230.36L541.16,228.84L535.89,226.47L531.26,228.90L530.14,233.97L524.40,231.98L519.66,230.26L515.41,226.82L510.23,225.90L505.72,222.94L508.23,218.59L508.29,213.45L503.18,213.18L501.95,213.89L496.83,213.68L489.67,214.02L483.22,215.22L477.65,217.92L472.73,219.61L467.62,219.13L462.71,222.71L458.21,225.42L455.24,230.09L455.06,235.32L451.64,238.97L446.86,241.29L443.74,245.61L441.86,250.42L438.76,254.60L436.48,259.60L436.37,261.28L438.51,266.19L438.16,271.78L436.12,277.11L439.44,280.97L441.30,285.69L441.50,287.57L444.96,291.22L447.29,295.74L450.55,298.02L455.29,301.59L460.40,304.55L460.69,304.59L465.76,302.70L471.43,302.59L472.27,302.59L477.28,302.46L482.43,300.84L486.93,299.41L492.44,300.29L495.28,304.63L500.55,304.07L504.99,306.46L504.69,311.60L504.55,313.10L502.63,318.08L505.75,322.27L509.08,326.32L510.76,328.56L511.26,330.50L513.50,335.71L514.01,341.01L515.28,346.19L512.12,350.45L510.75,355.94L510.05,360.57L513.38,368.07L515.76,372.84L517.10,378.04L518.04,383.36L519.12,388.34L522.09,392.23L524.40,397.60L526.86,402.63L527.23,407.74L531.24,410.80Z M533.04,197.52L535.18,196.23L532.07,194.22L532.96,197.59Z "/><path d="M305.85,487.88L301.61,484.63L305.57,487.84L305.76,487.92Z M310.07,485.03L307.24,480.24L304.51,474.99L299.72,476.64L302.91,482.13L297.89,482.56L303.20,484.59L308.21,484.56L309.78,485.13Z M298.08,479.82L299.41,474.90L304.84,473.56L303.04,468.36L304.34,463.40L307.86,459.28L311.58,455.91L307.54,450.68L308.83,445.81L312.91,442.68L315.10,438.07L313.60,432.91L318.87,431.35L321.11,426.17L326.88,423.76L332.47,421.57L334.97,416.95L333.35,412.06L330.21,407.60L331.05,403.69L331.03,408.70L335.69,411.03L340.87,410.63L343.41,407.57L346.22,403.24L348.56,398.29L352.69,394.41L355.61,389.93L355.68,384.51L359.36,380.43L364.00,377.92L369.01,376.25L373.58,374.15L376.62,369.55L378.30,364.31L379.87,359.27L380.04,353.66L380.84,348.64L384.39,344.73L388.16,341.07L390.71,336.52L390.06,330.91L385.66,328.47L381.53,325.26L377.03,322.94L371.87,322.89L366.82,322.79L363.18,319.19L358.29,317.46L354.20,320.55L352.46,319.61L351.17,320.24L350.90,320.35L350.89,318.76L352.46,319.61L355.69,318.03L350.86,316.14L350.89,318.76L349.75,318.14L351.86,313.14L349.49,307.86L347.81,305.34L346.01,307.93L341.57,310.24L341.47,310.31L341.64,307.15L341.40,302.01L336.08,300.65L331.61,298.33L327.78,294.54L322.75,293.88L320.01,289.56L314.03,289.76L308.56,288.43L303.85,286.29L298.75,286.87L297.77,292.04L296.27,287.06L291.14,286.70L286.64,289.16L283.73,293.40L278.59,291.48L273.53,292.56L268.70,291.12L265.45,287.07L266.13,281.34L267.18,276.92L262.53,274.28L256.61,274.69L254.20,274.97L252.50,274.54L254.22,269.57L256.23,264.84L257.80,259.59L252.54,259.61L248.42,262.87L245.98,267.44L240.58,267.74L235.43,266.96L231.44,261.81L229.60,256.59L230.04,251.35L230.72,245.66L231.35,240.63L235.88,238.43L239.84,235.25L244.82,235.68L249.98,236.79L254.44,234.11L259.48,233.82L264.91,234.89L268.47,238.46L269.01,243.76L272.12,247.98L274.94,243.69L273.11,238.84L271.53,233.29L273.48,228.57L277.24,224.95L281.61,221.72L285.58,218.42L283.87,213.53L282.21,208.73L285.50,212.84L287.84,208.10L290.54,203.63L292.07,201.60L291.21,201.88L290.87,201.96L290.92,201.21L292.58,200.91L292.07,201.60L295.98,200.30L292.58,200.91L293.57,199.60L299.06,198.07L299.52,192.39L303.52,188.85L308.56,187.12L313.50,184.52L310.83,188.78L315.78,187.99L320.65,186.73L316.53,183.00L313.80,178.81L310.17,175.11L315.32,173.72L311.39,170.60L306.26,172.53L302.21,175.47L298.31,179.69L293.86,182.18L289.93,185.82L293.58,181.88L298.00,179.41L301.26,175.52L304.36,171.45L308.68,167.56L313.99,166.44L319.20,166.34L324.38,166.54L328.86,164.01L333.36,161.56L337.52,158.61L336.91,153.53L333.06,150.19L328.18,152.44L332.33,149.21L328.78,145.67L324.56,142.49L321.03,138.89L321.34,133.68L318.96,128.84L316.39,124.44L311.86,126.61L308.48,130.47L303.97,132.69L300.46,128.86L301.91,124.04L301.94,118.78L297.40,116.64L294.44,112.49L289.52,110.58L283.92,109.51L280.51,113.36L279.91,118.38L281.98,123.01L279.75,127.50L282.54,132.48L284.15,137.84L282.75,143.08L278.21,146.90L277.61,152.02L278.84,157.17L278.08,162.41L273.08,163.01L271.04,158.41L269.68,153.01L269.58,147.32L265.10,145.08L260.34,143.53L255.10,140.40L250.20,137.42L244.50,137.03L242.39,132.20L238.36,128.93L237.42,122.87L239.04,117.30L240.50,112.38L244.34,109.07L247.85,104.80L243.19,102.18L248.30,102.73L253.11,100.73L256.63,95.89L252.29,92.72L248.14,89.39L253.07,91.10L258.11,90.73L258.02,85.42L263.42,87.36L262.86,82.06L266.07,86.21L270.13,82.77L270.89,77.45L268.73,72.48L271.86,67.72L268.56,63.56L263.37,62.39L261.76,67.34L260.59,72.49L258.69,77.51L253.95,75.64L254.88,70.64L251.72,66.64L249.93,71.45L246.50,66.53L242.28,63.73L245.66,59.93L242.55,55.18L241.33,49.94L238.00,45.71L235.43,50.93L233.39,56.11L233.62,61.33L238.12,64.36L237.89,69.98L237.53,75.08L236.21,80.52L234.22,74.48L229.63,71.88L231.35,76.77L226.26,77.44L220.10,77.65L215.57,75.13L210.78,73.29L206.89,69.86L201.96,72.96L207.16,73.10L203.71,76.80L205.44,81.57L201.12,78.73L196.42,76.70L191.11,77.73L186.05,76.83L187.69,71.75L183.62,68.67L178.44,68.58L173.27,66.11L168.97,62.94L164.29,64.99L161.52,60.81L159.65,65.49L155.59,62.36L153.05,57.35L150.61,62.68L145.61,65.10L140.78,67.57L144.84,64.00L148.48,60.48L143.61,61.88L139.55,64.91L134.14,65.20L133.91,70.75L129.20,68.93L123.80,64.85L118.40,63.76L113.47,60.40L108.40,61.20L101.99,59.64L97.28,57.38L91.14,57.85L87.16,54.45L81.83,54.43L76.65,54.06L71.34,55.27L67.97,58.97L62.96,63.07L60.62,68.32L54.63,69.40L55.27,74.49L59.96,78.23L63.45,82.01L67.83,84.51L63.90,88.35L60.13,84.78L55.57,87.12L51.12,90.18L53.75,95.13L57.78,98.12L63.16,97.75L67.63,95.29L68.21,100.61L64.48,103.95L59.24,105.31L56.58,110.40L55.40,115.29L60.30,118.14L59.92,123.16L64.72,119.56L65.84,124.72L69.85,127.81L75.07,127.49L76.63,132.33L74.14,136.80L70.14,140.15L65.56,142.77L62.11,146.45L66.43,143.83L71.34,142.77L75.32,139.66L79.54,136.84L82.94,133.14L86.65,129.52L86.72,124.49L90.25,120.67L93.39,116.66L98.31,117.77L92.73,118.78L91.37,123.74L96.62,123.97L100.68,120.97L104.52,117.02L108.27,120.67L114.17,122.13L119.55,123.91L124.56,126.49L129.20,130.65L134.14,131.44L133.43,126.47L136.21,131.12L138.50,135.74L141.71,140.04L145.06,144.01L146.20,149.06L148.10,153.78L151.71,157.59L155.77,160.63L157.29,165.55L161.60,168.42L165.66,171.37L166.79,176.29L161.56,174.19L162.30,179.30L162.83,184.40L162.32,189.89L161.61,195.07L162.31,200.61L163.11,205.97L165.54,210.37L168.31,214.54L170.63,219.15L174.76,222.32L179.37,225.28L181.53,229.95L183.67,234.94L187.45,238.92L188.25,243.97L192.92,247.04L195.83,252.14L195.08,246.99L192.52,242.42L189.53,238.35L186.62,233.69L191.47,235.24L194.18,239.68L197.77,243.47L200.26,247.83L204.34,250.97L207.69,254.69L210.17,259.05L210.55,264.28L214.91,267.59L219.98,269.83L224.87,272.33L229.82,274.34L234.90,274.55L240.11,274.55L243.87,278.05L249.42,280.24L254.32,281.75L256.48,282.24L260.00,286.55L262.17,291.10L266.43,294.07L271.41,295.92L275.90,293.66L280.99,294.86L281.74,299.90L281.61,304.95L279.20,309.42L275.92,313.23L273.84,317.91L275.71,322.85L272.11,326.59L273.18,331.85L276.85,335.86L279.47,340.56L282.14,345.46L284.92,350.28L287.04,354.82L291.31,357.77L295.82,360.07L299.78,363.51L300.48,368.62L300.27,374.01L299.55,379.41L299.23,384.67L298.16,389.65L297.46,394.65L296.60,399.76L296.78,405.20L295.59,410.27L293.50,415.85L291.85,420.73L292.54,425.69L290.82,430.54L294.14,434.43L292.92,439.46L292.97,444.69L291.48,449.73L286.38,450.89L289.99,454.46L289.64,460.19L289.53,465.34L290.80,470.49L291.52,475.59L296.59,474.42L296.52,479.73L297.53,480.08Z M289.09,463.97L288.70,458.87L288.66,463.99L288.82,464.02Z M291.00,439.15L291.82,434.04L289.62,438.68L290.82,439.17Z M297.28,269.85L302.08,267.78L298.84,263.89L293.49,263.68L289.62,267.21L295.58,268.28L297.17,269.88Z M281.75,263.86L287.31,263.77L283.84,259.97L278.62,256.99L273.85,255.18L268.64,255.05L264.04,257.29L270.39,256.12L274.91,258.47L279.34,260.82L281.11,263.88Z M323.41,184.37L325.36,179.42L322.73,183.89L323.28,184.42Z M342.99,180.51L344.36,175.44L342.90,170.45L337.51,169.78L336.37,164.60L331.75,168.73L328.84,172.93L332.43,176.77L337.77,177.38L342.58,178.78L342.91,180.52Z M163.84,174.02L161.01,169.80L157.01,165.72L152.16,164.09L155.63,167.92L158.92,171.71L163.69,174.06L163.75,174.10Z M142.01,147.77L140.81,142.69L141.69,147.67L141.84,147.77Z M135.39,140.93L134.58,135.68L135.00,140.68L135.32,140.98Z M86.50,138.00L90.44,134.60L85.42,134.24L85.95,138.39Z M135.95,137.07L136.45,131.87L135.55,136.90L135.74,137.13Z M266.62,110.76L270.27,107.18L265.28,109.45L265.79,111.19Z M310.77,112.65L307.99,107.40L304.25,103.60L308.96,105.39L313.19,108.49L313.42,103.07L313.41,97.93L309.46,94.84L306.09,91.02L306.27,85.70L310.93,87.83L313.70,92.56L318.85,91.03L319.91,86.09L318.35,81.11L314.86,76.84L309.74,76.58L307.36,72.12L302.60,69.60L307.29,67.38L302.77,64.88L307.67,63.34L304.04,59.77L301.63,55.27L297.49,59.70L299.18,54.61L294.11,54.93L297.82,51.39L293.43,48.18L288.67,50.92L290.07,46.04L287.30,41.50L282.28,39.31L278.28,43.32L273.45,45.63L274.17,39.81L272.64,34.86L269.62,30.43L264.80,32.95L264.32,38.45L263.03,43.38L262.13,48.31L262.92,53.38L260.54,48.48L259.01,43.35L258.29,38.15L260.72,32.93L256.14,30.22L252.89,34.06L250.85,39.71L249.84,45.13L250.45,50.24L255.40,52.19L252.61,57.31L257.83,58.34L262.33,60.68L267.35,61.24L272.90,63.27L278.10,61.44L283.03,62.57L286.40,67.05L289.53,71.55L293.42,75.94L294.80,81.38L291.68,85.45L291.53,90.84L286.24,92.92L280.70,94.40L282.51,99.12L287.51,98.02L292.48,97.35L295.29,101.54L297.40,106.15L302.48,108.92L307.40,111.24L310.43,112.78Z M261.85,105.74L265.72,101.87L271.75,103.46L270.69,98.28L266.54,94.21L261.85,91.72L259.02,96.87L257.26,101.78L261.20,105.74L261.46,105.85Z M284.65,80.55L287.73,75.80L282.62,75.92L283.72,80.70Z M233.28,72.31L233.84,66.72L230.21,62.74L227.34,67.01L230.54,71.80L232.78,72.38Z M191.66,72.21L197.29,71.34L202.19,69.31L206.53,66.08L211.23,68.00L215.98,69.80L219.02,65.64L221.58,61.05L217.45,57.72L213.41,54.17L212.85,49.00L210.68,42.06L209.20,36.93L204.32,34.11L203.61,40.03L204.77,45.32L201.67,40.90L198.24,37.09L196.03,41.91L192.20,37.57L187.80,40.28L187.92,34.99L181.66,36.54L177.67,40.20L175.59,45.65L178.17,50.49L184.18,49.24L179.76,51.92L182.29,56.53L187.40,56.13L193.07,57.89L187.82,58.95L181.71,59.95L181.67,65.24L187.42,66.64L189.94,71.42L191.15,72.27Z M277.00,39.13L282.90,38.38L282.63,33.03L276.88,31.30L274.97,36.33L276.54,39.14Z M210.54,37.72L212.42,32.89L207.79,30.60L209.23,36.20L210.41,37.76Z M227.82,51.08L231.69,47.50L232.98,42.24L230.91,37.56L230.15,32.56L224.07,28.51L220.33,32.27L224.52,35.14L221.78,39.40L223.24,45.50L225.93,50.23L227.50,51.21Z M239.33,45.29L240.02,39.90L244.79,38.33L246.94,33.34L248.06,28.45L243.05,27.24L237.56,27.21L235.22,32.06L235.30,37.53L236.38,42.65L239.06,45.53Z M165.62,52.83L170.51,50.05L172.39,44.48L175.25,40.14L179.38,36.69L184.34,33.33L181.28,27.75L176.62,25.72L171.47,24.69L166.18,23.63L160.87,24.74L162.98,29.60L161.13,34.88L160.02,40.10L158.15,44.85L162.63,48.18L164.97,52.86L165.37,52.91Z M256.41,23.27L261.33,22.33L266.53,21.80L271.83,22.78L276.52,19.61L276.32,14.57L272.21,11.50L266.98,10.81L261.51,12.66L256.41,12.46L251.36,12.66L249.22,7.88L246.25,3.40L240.91,3.10L240.06,0.00L234.50,0.00L234.39,2.05L238.45,5.18L243.34,8.34L243.70,13.61L244.29,18.94L248.25,22.21L253.04,20.37L255.83,23.58Z M192.03,24.09L196.56,21.48L201.04,18.32L206.02,19.13L209.48,14.29L209.73,8.94L204.36,9.49L202.72,4.00L201.06,0.00L200.35,0.00L197.79,3.72L198.81,8.95L193.68,10.04L190.86,5.59L186.28,2.75L182.59,6.13L180.64,10.87L179.03,15.72L183.82,18.74L187.93,15.52L192.71,17.10L188.60,20.27L190.76,24.23Z M238.90,21.87L240.72,17.07L238.34,12.44L234.01,15.42L235.72,20.42L238.06,21.98Z M225.56,17.99L229.51,14.26L230.08,8.83L229.99,3.67L224.92,1.45L225.25,6.65L220.65,3.80L220.22,8.80L217.16,12.95L224.29,11.54L222.84,16.55L225.03,18.59Z M177.17,12.58L179.29,7.38L175.44,10.62L176.44,13.24Z M217.47,10.51L217.46,5.19L212.80,7.05L216.54,10.68Z M273.49,6.32L277.99,3.35L279.79,0.00L251.41,0.00L250.83,1.06L256.07,4.06L261.58,4.85L266.59,3.48L271.77,2.77L273.21,6.35Z M172.48,9.76L173.96,4.71L177.06,0.60L179.31,5.29L182.93,1.12L182.81,0.00L171.07,0.00L168.89,3.33L166.22,7.79L171.26,7.84L171.96,10.04Z "/></g></svg>