<?xml version="1.0" ?><!DOCTYPE svg  PUBLIC '-//W3C//DTD SVG 1.1//EN'  'http://www.w3.org/Graphics/SVG/1.1/DTD/svg11.dtd'><svg enable_background="new 0 0 960 419" height="419px" style="stroke-linejoin: round; stroke:#000; fill:#f6f3f0;" version="1.1" viewBox="0 0 960 419" width="960px" xmlns="http://www.w3.org/2000/svg" xmlns:xlink="http://www.w3.org/1999/xlink"><defs><style type="text/css"><![CDATA[path { fill-rule: evenodd; }
#context path { fill: #eee; stroke: #bbb; } ]]></style></defs><metadata><views><view h="419.063180992" padding="0.02" w="960"><proj flip="auto" id="robinson" lon0="0.0"/><bbox h="3000" w="5545.84" x="-2772.92" y="-1315.07"/><llbbox lat0="-60.0" lat1="75.0" lon0="-180.0" lon1="180.0"/></view></views></metadata><g fill="#a9c7d2" id="continents" stroke="none"><path d="M864.40,361.77L869.15,359.72L873.41,356.11L877.93,353.92L882.44,351.15L886.70,348.37L881.56,347.82L877.38,350.75L872.78,352.99L867.36,355.02L862.62,357.54L863.82,361.80Z M819.47,353.31L823.74,350.64L827.17,346.96L821.94,346.04L818.71,349.88L819.36,353.33Z M826.79,340.54L831.32,337.45L836.46,336.49L839.87,332.49L843.24,328.67L846.78,324.65L850.81,321.35L854.18,317.45L857.16,312.52L859.13,307.89L860.37,302.29L858.72,297.17L856.95,292.01L853.89,287.79L850.94,283.49L848.25,279.16L847.69,274.11L846.55,269.06L844.26,264.32L843.19,259.28L839.88,263.27L838.80,268.62L837.56,273.63L834.82,277.90L830.14,275.68L825.76,272.95L824.49,268.08L827.92,262.86L822.69,262.14L817.86,260.08L812.98,262.39L809.68,266.19L807.24,270.77L803.18,267.73L798.24,269.04L794.65,272.73L791.78,277.53L787.36,280.36L783.87,284.04L778.22,285.77L773.22,286.88L768.52,289.73L764.30,292.65L762.63,297.85L763.42,303.23L761.97,308.12L762.51,313.17L762.51,318.86L760.56,323.70L762.44,328.55L767.30,326.93L772.64,325.15L777.81,325.19L782.31,322.51L787.38,320.48L793.67,319.41L799.45,318.59L804.71,320.27L807.22,324.88L812.38,324.66L809.76,329.15L813.87,326.26L814.90,331.42L814.34,336.98L819.09,338.99L824.02,337.90L826.60,340.64Z M890.02,347.61L894.39,345.02L898.18,341.64L902.87,339.15L900.61,334.21L899.93,329.17L897.46,333.53L894.90,338.54L891.92,342.57L889.06,346.68L889.79,347.70Z M778.54,253.36L783.50,252.38L778.42,251.55L778.28,253.45Z M795.27,257.05L799.50,253.96L804.51,251.49L799.45,251.98L795.09,254.94L794.99,257.06Z M788.57,252.94L793.38,251.37L788.19,251.21L788.44,252.97Z M862.80,257.93L860.30,253.36L856.32,249.43L856.39,244.37L852.42,241.26L848.34,238.14L843.56,236.03L840.45,234.65L835.57,232.87L830.53,233.19L826.53,236.56L823.05,232.80L819.84,228.31L815.29,230.71L819.75,233.67L819.56,238.70L824.72,238.50L829.60,241.27L833.24,244.81L834.50,249.79L838.76,253.08L843.98,253.75L846.65,248.96L851.62,250.13L854.52,254.28L858.90,256.73L862.53,257.95Z M772.08,252.37L767.71,248.97L763.32,245.82L758.21,246.84L753.60,244.35L749.19,246.73L754.33,248.94L760.16,249.77L765.83,251.20L770.98,252.08L772.03,252.49Z M862.52,245.32L867.38,243.15L862.24,243.09L862.26,245.34Z M870.78,240.87L868.08,236.28L870.47,240.89L870.58,241.09Z M752.67,235.79L750.04,231.52L752.39,235.94L752.69,235.99Z M785.82,243.57L787.66,238.25L792.92,239.90L791.97,234.79L794.12,229.89L789.26,231.09L787.48,226.41L786.54,229.59L784.51,234.29L785.62,239.91L785.70,243.58Z M808.26,229.46L808.71,224.26L807.53,229.14L808.49,229.68Z M792.79,225.70L797.90,225.94L793.17,224.15L788.01,224.64L787.51,226.31Z M341.68,220.87L346.15,218.26L348.00,215.34L344.90,211.39L341.69,211.58L341.89,216.59L341.58,220.95Z M747.28,244.16L750.53,240.28L749.97,234.31L746.98,230.21L744.69,225.71L740.32,222.40L736.01,219.43L732.26,215.99L729.15,212.02L724.20,210.85L726.13,215.55L729.65,219.35L733.06,224.11L735.84,228.47L737.89,233.31L741.03,237.52L745.07,241.67L747.15,244.20Z M774.56,238.41L777.63,234.39L779.88,229.78L781.26,224.91L781.42,219.74L780.62,214.63L784.57,211.56L780.42,208.71L775.71,211.07L771.42,213.80L768.67,218.03L764.38,220.73L759.46,222.16L759.24,227.51L761.23,232.14L765.04,235.71L770.21,236.32L773.08,239.17Z M800.36,210.69L802.87,206.32L801.86,201.17L796.99,202.31L792.08,203.80L796.78,205.56L798.97,210.08L800.09,210.88Z M686.10,209.78L688.66,205.48L686.17,200.96L683.79,207.32L685.52,209.87Z M779.06,202.66L782.48,198.81L778.89,202.36L778.84,202.87Z M793.75,200.85L794.41,195.88L793.40,200.86L793.58,200.88Z M794.27,199.73L795.53,194.61L794.12,199.62L794.17,199.81Z M715.76,193.69L716.05,188.48L715.62,193.68L715.71,193.76Z M795.22,190.06L791.65,186.01L787.43,183.03L789.23,177.90L785.38,173.34L783.92,178.56L784.01,183.72L787.47,187.60L792.52,188.17L795.11,190.71Z M756.16,174.32L759.08,170.18L753.85,170.68L755.99,174.34Z M744.85,223.24L744.44,217.66L743.57,211.86L739.83,208.35L735.61,205.38L734.47,200.47L733.12,195.56L733.87,190.35L738.93,190.72L742.21,194.63L746.32,197.54L750.96,199.42L754.82,196.05L757.42,191.15L756.86,186.11L754.34,181.45L750.45,177.71L746.71,173.52L747.49,168.35L750.97,164.65L755.54,167.12L759.87,164.39L764.11,162.68L768.89,161.00L773.10,158.26L775.99,154.10L777.67,149.24L779.80,144.50L777.98,139.57L775.25,135.18L772.59,130.15L768.32,126.58L769.37,121.59L764.55,119.26L759.92,115.99L762.07,111.36L766.92,109.11L767.34,114.09L771.67,111.42L776.65,113.03L778.76,117.65L783.39,119.93L784.40,124.82L789.44,126.01L789.98,120.93L785.91,116.39L781.79,113.46L784.42,108.63L783.77,103.56L788.82,103.14L792.65,98.76L794.21,93.47L794.11,88.26L792.46,83.54L789.57,79.42L787.04,74.96L782.71,72.28L777.88,70.94L772.92,70.05L771.33,65.12L772.17,60.07L776.88,57.21L782.17,57.23L787.84,56.47L792.79,57.43L797.85,57.63L795.77,52.92L800.57,51.02L804.99,53.62L806.84,48.47L810.56,51.88L809.37,56.75L807.17,61.35L809.58,66.10L813.90,70.33L818.86,74.50L823.75,78.74L825.80,73.86L825.24,68.64L822.64,64.24L818.77,61.03L815.03,56.82L819.97,55.95L825.06,54.39L828.86,51.03L833.92,48.76L830.37,45.07L825.65,43.14L820.62,43.35L825.90,43.11L814.82,32.59L809.02,31.34L803.77,30.37L798.61,30.44L792.98,29.86L797.52,32.22L792.36,31.96L786.73,31.22L781.62,30.86L775.26,30.77L770.15,28.22L764.24,27.49L759.12,28.01L753.25,26.83L748.25,26.08L743.30,24.55L738.19,24.89L732.46,23.66L728.66,27.00L723.67,26.49L718.44,25.65L713.23,26.51L708.41,24.62L703.28,21.74L698.29,21.27L693.59,23.05L688.57,22.15L682.30,21.38L677.20,20.78L672.10,20.86L667.57,23.39L671.52,19.83L669.21,15.21L663.37,14.51L658.23,13.90L653.20,12.56L648.24,15.08L642.92,16.33L637.87,16.11L632.73,17.36L631.87,22.29L626.78,21.42L621.60,21.69L626.10,24.58L630.75,26.49L625.09,25.42L620.07,24.42L615.09,25.44L615.56,30.59L620.96,31.97L625.75,33.82L620.74,32.79L620.04,37.84L614.75,39.14L617.68,35.07L614.29,31.37L610.42,26.99L606.97,23.23L602.59,26.41L604.91,31.12L599.52,31.48L593.86,30.69L588.63,32.75L583.58,33.61L578.28,33.21L572.60,35.33L568.21,37.89L565.10,33.66L564.77,38.79L559.64,39.69L556.12,43.27L551.04,42.70L546.74,40.13L541.80,37.70L547.68,38.92L552.80,39.76L558.49,37.93L554.63,34.61L548.10,32.54L542.42,31.79L537.23,30.68L532.94,28.05L527.77,28.24L522.85,29.52L517.83,30.48L512.89,32.30L508.74,35.10L505.22,38.65L502.08,42.78L498.39,46.21L493.48,48.23L490.06,51.91L495.36,52.35L490.30,52.72L490.65,57.78L494.96,60.76L499.71,58.39L504.36,60.96L506.91,65.35L512.42,65.89L514.56,61.12L518.04,57.43L512.94,56.93L518.11,56.70L514.72,52.52L516.69,47.87L521.20,44.64L523.80,40.33L528.77,41.15L525.70,45.37L522.15,48.94L523.47,53.86L528.21,55.63L533.32,54.47L538.67,54.67L532.87,56.52L530.67,61.13L530.67,61.24L525.39,62.04L524.98,67.34L522.06,70.50L516.95,69.76L511.69,71.71L510.62,71.90L505.37,71.36L500.74,69.22L501.66,64.18L497.28,67.39L499.35,71.96L494.20,73.32L489.95,76.06L485.56,79.80L481.37,83.26L476.21,83.77L471.68,86.51L474.68,90.56L477.57,94.73L476.90,99.74L472.09,101.33L466.90,100.97L461.86,100.62L459.28,105.11L459.11,110.34L458.15,115.33L461.02,119.84L465.51,122.25L470.84,120.57L475.71,119.17L479.87,115.19L480.86,110.17L485.02,107.32L487.33,102.37L492.32,101.63L497.18,100.50L502.43,99.52L505.97,103.90L510.07,107.07L514.69,109.17L518.05,113.57L522.06,110.28L517.47,106.99L512.99,103.98L509.78,100.02L510.03,94.90L511.34,95.35L515.13,98.73L519.68,102.01L524.01,104.70L525.72,109.73L527.22,111.92L530.34,115.89L532.41,120.63L535.93,116.81L533.89,111.66L537.92,108.60L542.96,109.29L547.91,108.20L544.50,104.42L545.94,98.97L548.84,94.61L553.47,92.58L556.88,96.72L561.94,96.80L563.73,91.85L568.61,90.59L566.02,95.16L570.75,100.09L572.50,101.42L576.77,104.28L577.08,106.76L571.11,108.17L566.08,107.20L561.08,105.52L555.99,105.95L551.09,107.67L546.55,109.92L541.69,111.45L544.38,115.69L547.52,119.77L552.17,122.07L557.44,122.02L562.81,120.49L566.22,123.05L566.21,128.57L564.83,133.89L564.22,135.65L565.75,141.48L565.85,141.73L567.57,146.78L570.66,151.50L573.27,156.27L576.82,159.93L578.10,164.79L581.71,169.20L584.37,173.66L587.43,177.99L587.99,182.99L589.72,188.68L595.23,189.26L600.26,187.54L605.03,184.71L609.93,183.01L614.11,178.89L619.02,177.76L622.68,173.27L625.30,168.84L628.63,165.03L627.48,160.12L622.74,157.82L620.10,153.05L615.97,155.97L610.94,157.28L607.99,153.18L606.51,155.31L604.50,150.63L600.94,147.08L598.41,142.50L602.66,139.62L605.76,143.74L609.77,147.12L614.47,149.79L619.35,148.35L622.44,152.41L627.82,153.31L632.81,154.41L637.95,154.09L643.34,153.67L647.70,156.54L651.48,159.95L654.21,164.32L659.11,166.66L662.22,162.72L662.65,168.96L663.77,173.91L665.33,179.43L667.65,183.94L669.81,189.23L672.35,193.89L674.75,199.48L677.66,203.70L681.81,200.29L683.09,194.67L683.88,188.41L682.71,183.45L686.53,179.80L690.28,175.59L694.30,170.61L698.16,167.39L700.68,163.04L705.79,162.94L710.57,164.79L713.82,168.66L717.29,172.83L718.50,178.00L723.35,179.58L727.42,182.77L728.99,187.58L730.83,192.47L730.75,197.61L730.44,202.71L734.13,206.38L736.26,210.92L737.57,215.91L740.53,220.00L744.67,223.25Z M800.28,137.02L800.93,132.02L796.87,128.91L797.80,133.83L799.85,137.30Z M809.61,129.94L813.77,126.93L818.16,123.89L816.53,118.48L815.84,113.34L812.44,109.33L811.40,114.32L810.24,119.34L806.62,122.83L801.52,124.24L797.49,127.46L802.52,127.40L807.39,128.96L809.17,130.16Z M559.76,126.92L561.98,125.56L558.83,125.24L559.73,127.01Z M501.05,114.23L503.06,109.65L500.26,113.89L500.86,114.24Z M528.31,105.81L527.23,103.08L530.23,104.71L528.38,105.76Z M808.16,106.93L813.11,105.07L817.16,102.11L812.11,99.52L807.50,97.51L805.16,101.93L807.30,106.59L807.93,107.03Z M603.98,120.99L599.27,118.54L595.84,114.52L598.56,110.28L594.11,106.44L590.55,102.87L587.55,98.62L590.53,94.37L594.81,91.53L599.87,91.48L597.62,95.99L598.45,100.99L602.44,104.20L606.77,107.00L606.27,112.04L608.09,116.77L605.00,120.97Z M803.91,94.18L801.48,89.41L801.14,84.14L795.80,79.38L792.23,75.82L788.30,72.33L790.10,77.47L793.98,81.10L797.30,85.47L800.29,89.69L803.23,93.93L803.91,94.42Z M459.06,78.61L464.23,76.88L466.48,72.20L463.03,68.50L458.65,71.03L458.55,76.06L458.61,78.75Z M468.64,82.76L473.38,80.86L479.00,80.60L482.88,77.40L479.37,72.61L476.75,68.31L472.16,66.18L475.95,62.63L472.01,59.34L467.87,62.32L467.76,67.81L472.66,69.12L471.09,73.91L472.17,78.91L468.16,82.18L468.40,82.81Z M141.32,44.34L145.92,42.02L150.84,40.87L145.99,39.13L147.14,34.11L141.43,35.00L136.81,38.04L132.26,41.13L136.94,39.06L139.75,43.26L140.97,44.38Z M443.86,46.51L448.97,44.65L453.58,42.45L449.83,39.02L444.83,39.68L439.84,40.92L434.99,39.55L437.17,44.09L441.98,46.54L443.15,46.63Z M583.15,28.75L579.27,25.50L575.00,22.31L576.99,26.92L581.81,28.64L583.04,28.76Z M720.92,19.19L725.98,18.82L720.72,16.07L715.58,15.93L720.17,19.10L720.73,19.20Z M579.87,22.30L583.68,19.00L588.54,16.91L593.68,15.93L588.71,15.33L583.37,15.54L578.71,17.39L575.08,20.84L579.52,22.32Z M508.46,14.83L511.59,10.80L507.39,7.84L502.45,8.64L497.33,8.12L501.52,11.31L506.74,10.47L508.08,14.89Z M644.51,11.87L649.70,11.27L645.03,8.93L644.17,11.91Z M640.19,10.10L635.54,8.02L630.51,7.70L635.67,9.70L639.60,10.17Z M518.86,9.29L514.11,7.25L508.67,7.39L513.49,8.92L518.58,9.33Z M556.08,7.55L561.23,6.39L556.19,6.62L555.76,7.56Z "/><path d="M593.12,301.12L597.77,298.23L599.66,292.96L601.59,287.62L603.44,282.46L604.76,277.33L605.63,272.17L607.04,266.41L601.99,266.54L599.23,270.97L594.65,273.54L590.98,277.46L591.65,282.99L589.98,288.13L588.40,293.09L589.25,298.15L592.37,301.14Z M529.37,327.01L534.25,325.68L539.51,326.04L544.51,324.68L549.24,321.54L552.91,318.08L556.21,313.68L559.62,309.98L561.49,304.85L563.42,300.04L568.36,297.09L568.93,291.89L567.53,286.95L570.23,282.10L573.93,278.47L578.69,276.25L582.64,271.90L582.90,266.54L582.93,261.40L582.99,257.40L580.53,252.99L580.61,247.97L579.54,243.08L581.62,238.43L584.36,234.02L587.38,229.91L591.19,225.30L594.88,221.86L599.84,217.58L603.21,212.76L605.65,207.47L608.18,202.46L609.57,197.41L609.09,192.40L604.47,194.50L599.51,195.46L594.39,196.88L589.96,193.80L589.50,190.30L585.63,186.61L581.49,183.22L578.87,178.65L576.46,174.14L573.65,169.78L572.52,164.59L569.22,160.65L566.72,154.30L564.19,149.92L561.97,145.41L559.65,140.95L562.93,145.27L565.85,141.73L565.75,141.48L563.61,136.41L558.55,137.07L553.48,136.58L548.43,137.06L543.24,135.55L538.27,134.09L533.09,131.83L528.72,134.46L527.33,139.39L522.45,137.11L517.62,134.94L513.19,132.15L507.94,131.04L506.22,126.09L506.25,120.61L501.10,119.86L500.51,120.04L495.50,119.60L489.04,120.16L483.01,121.27L477.79,123.78L472.89,124.82L467.71,124.37L463.65,128.28L459.33,130.84L456.38,135.29L456.07,140.35L452.13,144.49L447.42,147.01L444.23,151.07L442.53,156.01L439.50,160.21L437.39,165.07L437.23,166.85L438.97,171.63L439.09,177.31L437.36,182.81L438.06,188.13L439.48,192.97L441.73,195.42L445.22,199.18L447.15,204.35L450.64,207.10L455.35,211.12L459.56,214.04L460.72,214.50L465.79,212.36L471.45,212.24L472.29,212.24L477.96,211.96L482.57,209.99L486.91,208.65L492.41,209.65L494.82,214.19L499.93,214.00L504.76,215.35L505.06,220.42L504.60,225.43L502.87,230.20L505.73,234.48L509.04,239.06L510.70,241.59L511.19,243.77L513.39,249.63L513.61,254.75L515.05,260.36L512.74,264.82L510.56,271.25L509.64,277.05L511.36,281.90L513.35,286.53L515.85,291.35L516.12,296.74L517.08,302.27L518.84,308.09L520.56,309.97L522.54,315.25L524.64,320.09L524.72,325.20L528.32,327.82Z M528.38,105.76L530.23,104.71L527.23,103.08L528.31,105.81Z "/><path d="M335.44,386.93L330.59,384.85L335.20,386.90L335.38,386.95Z M338.19,385.20L334.00,381.85L330.24,378.52L331.41,383.40L326.42,383.80L331.41,384.79L336.51,384.91L337.98,385.26Z M326.70,381.95L328.99,377.50L327.26,372.72L329.45,367.98L330.63,363.11L326.10,360.48L329.20,356.24L328.97,350.92L327.16,345.82L332.43,346.28L333.25,341.30L338.15,339.74L342.89,337.78L344.09,332.65L341.24,328.50L338.07,324.55L338.28,321.10L339.84,326.42L344.63,328.18L349.51,327.03L350.66,324.78L352.93,320.22L354.35,315.32L358.10,311.30L359.81,306.37L359.70,301.22L363.16,297.28L367.74,294.80L372.64,293.60L377.06,291.05L378.78,286.24L379.93,281.07L381.18,275.64L381.19,270.35L381.42,265.17L384.74,260.84L387.79,256.71L390.86,251.44L390.69,245.61L387.06,241.82L382.19,238.53L377.82,235.38L372.62,235.22L367.47,234.75L363.73,231.02L359.09,228.97L354.71,232.40L352.40,231.55L351.26,232.18L350.99,232.31L350.97,231.02L352.40,231.55L355.76,229.68L350.92,227.55L350.97,231.02L349.95,230.65L350.92,225.25L350.26,220.21L349.11,215.24L348.00,215.34L346.15,218.26L341.68,220.87L341.58,220.95L341.89,216.59L341.69,211.58L336.42,210.05L332.03,207.45L328.36,203.20L323.38,202.46L320.85,197.63L314.89,197.86L309.52,196.37L304.98,193.99L299.87,194.64L298.95,199.56L297.29,194.69L292.03,194.35L287.68,197.19L284.53,201.92L279.53,199.78L274.42,200.97L269.59,199.25L266.76,194.87L267.97,189.61L268.98,184.39L269.41,183.68L265.12,180.79L260.15,181.45L256.80,181.55L255.17,181.08L257.48,176.37L259.89,171.24L262.09,166.62L257.24,165.09L252.88,167.57L249.84,172.40L244.33,173.73L239.39,172.89L236.24,167.40L235.26,161.92L236.60,156.47L238.75,151.92L239.45,146.96L243.64,144.15L248.68,141.18L253.71,140.92L258.92,141.79L263.30,139.15L268.52,138.80L273.69,139.93L276.08,144.60L276.54,149.76L279.12,154.25L281.62,149.46L280.75,144.39L280.38,138.38L283.03,134.09L287.43,131.18L291.61,128.23L295.53,125.12L298.27,120.87L296.91,115.86L300.56,112.28L299.61,117.43L301.37,112.59L305.94,110.14L310.27,107.44L315.22,106.58L316.76,101.62L321.31,98.83L326.28,97.48L331.35,95.47L327.48,99.40L332.54,98.16L337.80,97.01L334.01,93.64L331.90,88.92L336.28,86.24L331.26,85.33L326.21,87.22L321.91,90.02L317.34,92.33L312.57,94.87L316.90,92.24L322.24,89.26L326.44,85.86L331.38,82.89L337.10,82.00L342.22,82.20L347.35,81.98L351.84,79.24L356.68,77.85L358.96,73.22L353.66,71.82L351.83,67.09L350.17,62.36L349.39,57.32L344.31,58.26L339.67,60.32L337.44,55.77L335.56,51.10L330.75,49.73L325.33,48.90L322.32,52.90L319.94,57.40L319.60,62.56L316.43,66.96L311.46,69.27L308.89,73.95L307.10,78.68L302.08,79.70L301.44,74.73L304.11,69.53L299.05,68.25L294.43,65.37L289.59,62.89L286.22,58.82L288.04,53.95L292.27,51.05L296.83,48.78L301.15,46.14L306.62,44.87L310.99,42.38L306.30,40.48L311.24,41.57L315.45,38.69L320.51,39.02L325.25,37.26L328.34,33.30L324.13,30.48L320.03,33.35L315.89,36.44L311.46,34.02L311.49,28.93L307.22,26.30L303.22,29.33L302.91,34.45L298.59,37.54L293.89,35.55L288.31,35.77L283.48,34.38L277.66,33.50L274.66,37.96L270.22,35.46L265.06,35.73L260.86,32.55L256.01,30.66L250.29,31.64L245.95,28.86L240.03,30.79L234.93,31.97L241.68,30.12L236.22,30.83L231.20,31.93L225.84,32.80L220.70,31.08L215.36,29.99L210.22,29.71L205.20,29.07L200.04,28.01L194.83,27.49L189.88,28.32L183.71,29.55L178.83,31.06L173.00,32.79L167.95,34.12L172.10,37.37L167.55,39.88L162.34,39.20L156.95,40.62L160.98,43.88L166.52,42.73L162.22,46.24L157.13,47.38L151.98,48.52L147.19,50.71L144.50,55.15L150.40,53.97L146.79,57.45L151.58,58.96L157.06,57.85L152.56,60.51L147.86,63.05L142.32,65.11L137.27,66.55L132.62,68.49L137.65,67.68L143.66,66.33L148.31,64.47L153.27,62.37L158.48,60.74L163.25,58.68L167.44,55.82L171.93,53.61L177.07,52.20L172.27,54.31L168.07,57.13L173.02,56.13L177.99,54.84L182.84,52.89L188.26,55.29L193.65,56.06L196.88,60.01L201.34,57.65L200.68,62.68L199.16,67.47L204.13,66.74L200.43,70.28L200.87,75.56L199.67,80.44L203.65,83.51L204.96,88.40L199.97,87.71L198.57,92.67L195.22,97.62L192.15,101.64L189.94,106.19L187.56,110.81L187.52,116.01L187.94,121.12L188.90,126.30L193.21,129.08L195.03,133.88L195.53,139.03L198.21,143.90L197.62,148.94L201.43,152.48L203.11,157.30L203.50,152.00L201.69,147.00L200.11,142.05L198.98,137.11L203.21,139.86L204.93,144.90L207.72,149.24L210.20,153.94L213.22,157.95L215.65,162.45L215.80,167.51L218.11,172.33L222.31,175.10L226.89,177.91L231.90,180.17L237.77,181.09L242.93,181.09L246.21,184.91L251.47,187.32L256.58,188.96L258.27,189.51L261.39,194.28L263.11,199.24L266.88,202.54L271.73,203.89L276.72,202.21L281.73,203.55L282.43,208.93L282.42,214.14L281.15,219.03L278.39,223.34L275.02,227.11L273.26,231.82L275.43,236.44L274.68,236.91L272.82,241.66L275.55,246.35L278.55,250.87L280.66,255.51L283.43,260.49L286.00,265.06L288.15,269.91L292.47,273.18L296.94,275.48L300.84,278.86L303.45,283.53L304.29,288.64L303.95,293.80L304.30,298.85L304.68,304.12L304.33,309.28L304.75,314.38L305.70,320.34L305.87,325.57L305.51,330.68L304.38,335.75L306.71,340.87L306.47,345.90L310.61,348.82L311.36,354.01L311.63,359.17L312.25,364.35L314.18,369.50L317.08,373.67L321.21,376.49L325.38,379.37L326.31,382.11Z M299.92,176.00L304.56,173.71L301.71,169.43L299.57,170.00L294.64,173.46L299.33,175.30L299.80,176.03Z M285.33,169.58L290.80,169.49L287.77,165.30L283.12,162.33L278.57,160.25L273.43,160.37L268.83,162.65L275.19,161.43L279.84,164.14L283.99,166.98L284.70,169.60Z M358.48,92.39L360.27,87.51L356.35,84.38L356.71,79.34L352.29,82.31L348.69,86.40L352.64,89.60L357.78,89.17L358.41,92.40Z M202.65,87.54L202.00,82.57L197.35,80.47L199.33,85.13L202.52,87.61Z M116.96,73.76L121.81,71.95L116.99,73.49L116.84,73.80Z M156.78,63.97L161.53,62.28L156.23,62.60L156.09,64.20Z M311.15,47.32L315.83,45.07L320.86,46.14L317.59,42.11L312.53,42.51L308.36,45.83L310.81,47.37Z M347.37,50.56L344.48,46.35L349.28,47.92L352.79,43.98L349.17,40.53L354.21,40.02L359.26,40.70L358.51,35.65L353.83,33.78L355.13,28.86L349.24,29.61L345.12,26.60L340.54,23.94L335.22,25.37L331.44,21.95L327.23,24.84L322.79,27.74L325.99,23.80L330.94,21.40L325.72,21.45L320.82,23.73L317.69,27.63L322.39,30.03L327.51,30.19L332.64,30.13L337.79,30.47L341.68,33.65L339.92,38.40L335.80,41.60L330.61,41.36L335.24,43.49L338.56,47.51L343.31,49.67L347.07,50.63Z M269.23,33.81L274.63,33.45L280.19,32.54L285.24,32.86L290.32,32.58L294.51,29.85L291.76,25.66L286.15,26.02L281.34,24.49L276.22,23.98L269.82,23.86L266.16,27.40L271.53,28.49L266.20,29.69L268.84,33.83Z M339.11,23.57L344.40,23.42L339.48,21.37L338.78,23.57Z M301.74,26.96L306.61,25.42L309.78,21.46L304.66,20.95L300.34,23.67L301.47,27.00Z M311.39,25.28L316.36,23.58L321.12,21.42L316.21,20.40L311.46,22.25L311.14,25.34Z M257.17,27.48L262.30,26.51L267.98,23.92L273.02,22.76L268.95,19.46L263.25,19.90L259.19,22.83L254.66,25.15L256.97,27.51Z M308.91,18.32L313.94,16.90L309.19,15.26L304.57,17.19L309.68,16.88L308.40,18.45Z M328.47,19.55L333.58,19.53L339.02,19.43L343.73,17.55L338.52,16.71L333.11,17.22L328.07,17.37L323.77,14.80L318.74,13.99L323.21,16.36L327.33,19.58L328.01,19.62Z M390.42,55.96L394.32,51.95L397.32,47.90L400.80,44.22L405.41,40.95L410.69,40.04L415.52,37.64L419.43,34.45L424.83,34.29L429.93,33.39L434.74,31.55L429.89,30.03L433.32,26.36L437.60,29.05L435.66,24.43L440.85,23.86L435.87,22.09L440.86,22.38L445.81,20.11L443.70,15.57L448.59,14.47L448.93,9.48L453.91,7.23L458.99,5.73L453.77,4.80L447.73,5.23L442.48,4.52L437.25,3.90L443.50,3.48L438.12,2.13L432.35,2.28L438.45,1.94L430.62,1.28L425.14,1.38L420.00,1.77L414.97,1.84L409.68,2.34L417.13,2.63L411.63,2.62L405.40,3.27L399.32,3.42L393.92,3.59L388.92,3.97L384.04,5.59L378.84,5.87L373.71,7.18L368.73,9.77L363.73,10.47L368.24,12.79L362.46,13.54L366.86,16.22L371.85,15.71L376.89,15.95L381.36,18.66L382.78,23.49L386.09,27.41L381.05,28.22L385.96,29.99L381.84,33.26L378.03,36.68L381.43,40.55L378.17,44.44L379.87,49.21L383.34,52.91L388.35,54.21L390.15,56.04Z M343.49,15.78L348.81,14.74L343.92,13.52L349.00,13.24L353.83,11.95L358.76,10.51L353.81,9.80L359.44,9.66L364.29,8.33L369.26,6.95L375.79,5.73L381.10,4.35L386.26,3.49L381.28,2.48L375.90,2.85L370.07,2.13L363.42,2.25L358.36,2.76L353.36,3.58L348.07,3.55L342.86,4.06L347.88,5.27L341.82,5.80L347.94,5.62L354.27,6.25L360.70,5.01L354.81,6.47L349.65,6.99L343.57,7.10L347.83,9.78L342.71,9.97L337.59,10.81L342.39,12.51L337.14,12.10L332.29,13.81L337.83,15.38L342.84,15.09L343.30,15.78Z M284.60,19.74L289.83,18.78L295.28,18.58L300.25,16.84L295.14,15.01L290.59,17.18L285.26,15.20L280.17,16.96L285.59,17.49L283.70,19.78Z M275.70,16.50L280.50,15.01L285.49,14.60L280.13,13.80L275.24,15.16L275.27,16.56Z M294.08,13.22L299.51,11.90L294.48,11.94L293.71,13.22Z M331.89,11.47L336.85,10.56L342.64,9.30L337.93,6.66L332.89,5.70L327.80,7.03L332.72,8.99L327.74,9.78L331.48,11.50Z "/></g></svg>